<?xml version="1.0" encoding="UTF-8"?>
<svg width="90px" height="90px" viewBox="0 0 90 90" version="1.1" xmlns="http://www.w3.org/2000/svg" xmlns:xlink="http://www.w3.org/1999/xlink">
    <!-- Generator: Sketch 52.4 (67378) - http://www.bohemiancoding.com/sketch -->
    <title>graphIcon</title>
    <desc>Created with Sketch.</desc>
    <g id="Page-1" stroke="none" stroke-width="1" fill="none" fill-rule="evenodd">
        <g id="Letter" transform="translate(-353.000000, -248.000000)" fill="#000000">
            <g id="graphIcon" transform="translate(353.000000, 248.000000)">
                <path d="M34.93,64.449 C33.539,64.449 32.191,63.9 31.191,62.901 L16.261,47.981 C14.195,45.916 14.194,42.567 16.259,40.501 C18.323,38.435 21.673,38.433 23.739,40.499 L33.497,50.25 L45.261,26.905 C46.024,25.392 47.464,24.336 49.137,24.065 C50.81,23.794 52.51,24.339 53.712,25.533 L67.22,38.951 L80,38.951 C82.921,38.951 85.289,41.319 85.289,44.241 C85.289,47.162 82.921,49.53 80,49.53 L65.039,49.53 C63.643,49.53 62.303,48.978 61.311,47.994 L51.427,38.175 L39.653,61.54 C38.889,63.056 37.445,64.113 35.769,64.383 C35.49,64.428 35.208,64.449 34.93,64.449 Z" id="Path"></path>
                <path d="M85,90 L5,90 C2.239,90 0,87.762 0,85 L0,5 C0,2.239 2.239,0 5,0 C7.761,0 10,2.239 10,5 L10,80 L85,80 C87.762,80 90,82.238 90,85 C90,87.762 87.762,90 85,90 Z" id="Path"></path>
            </g>
        </g>
    </g>
</svg>