<?xml version="1.0" encoding="utf-8"?>
<!-- Generator: Adobe Illustrator 22.1.0, SVG Export Plug-In . SVG Version: 6.00 Build 0)  -->
<svg version="1.1" id="Layer_1" xmlns="http://www.w3.org/2000/svg" xmlns:xlink="http://www.w3.org/1999/xlink" x="0px" y="0px"
	 viewBox="0 0 396 396" style="enable-background:new 0 0 396 396;" xml:space="preserve">
<title>temperatureIcon</title>
<desc>Created with Sketch.</desc>
<title>temperatureIcon</title>
<desc>Created with Sketch.</desc>
<g>
	<path d="M198,8C93.1,8,8,93.1,8,198s85.1,190,190,190s190-85.1,190-190S302.9,8,198,8z M49,163.9c48-155.5,234-141,282.8-31.3
		l-86.1,45.7C202.2,96.1,99.3,96.9,49,163.9z M259.4,276.7c0,34.5-28,62.5-62.5,62.5s-62.5-28-62.5-62.5s28-62.5,62.5-62.5
		c5,0,9.8,0.6,14.5,1.7l147.9-76.4c0,0-71.6,96.6-99.9,134C259.3,274.6,259.4,275.7,259.4,276.7z"/>
	<path d="M164.1,277.5c0,8.1,2.9,15.5,7.8,21.2l46.2-46.2c-5.7-4.8-13.1-7.8-21.2-7.8C178.8,244.7,164.1,259.4,164.1,277.5z"/>
</g>
</svg>
