<?xml version="1.0" encoding="UTF-8"?>
<svg width="90px" height="90px" viewBox="0 0 90 90" version="1.1" xmlns="http://www.w3.org/2000/svg" xmlns:xlink="http://www.w3.org/1999/xlink">
    <!-- Generator: Sketch 46.2 (44496) - http://www.bohemiancoding.com/sketch -->
    <title>noun_855737_cc</title>
    <desc>Created with Sketch.</desc>
    <defs></defs>
    <g id="Page-1" stroke="none" stroke-width="1" fill="none" fill-rule="evenodd">
        <g id="noun_855737_cc" transform="translate(0.000000, -1.000000)" fill-rule="nonzero" fill="#2EB457">
            <g id="Group" transform="translate(0.000000, 0.637820)">
                <path d="M45,0.36216 C20.1827,0.36216 2.00000002e-07,20.54503 2.00000002e-07,45.3622 C2.00000002e-07,70.1794 20.1827,90.3622 45,90.3622 C69.8173,90.3622 90,70.1794 90,45.3622 C90,20.54503 69.8173,0.36216 45,0.36216 Z M45,6.36216 C66.5746,6.36216 84,23.78769 84,45.3622 C84,66.9368 66.5746,84.3622 45,84.3622 C23.4254,84.3622 6,66.9368 6,45.3622 C6,23.78769 23.4254,6.36216 45,6.36216 Z M52,14.36216 C49.2385,14.36216 47,16.60076 47,19.36216 C47,22.12356 49.2385,24.36216 52,24.36216 C54.7614,24.36216 57,22.12356 57,19.36216 C57,16.60076 54.7614,14.36216 52,14.36216 Z M45.9062,25.36216 C42.3012,25.52401 38.4678,27.29992 35.25,29.76841 L34.9062,33.51841 C37.9464,32.32785 41.0659,32.3403 42,35.17466 C44.2745,42.06935 36.5032,54.1348 34.375,60.4559 C28.6015,77.6052 42.457,79.5866 52.3438,72.5184 L52.7188,68.4559 C47.3398,70.1403 43.4843,68.0714 46.5938,59.1122 C48.0919,54.7906 60.6289,33.01485 51.9688,27.01841 C50.1554,25.76261 48.0693,25.26505 45.9062,25.36216 L45.9062,25.36216 Z" id="Shape"></path>
            </g>
        </g>
    </g>
</svg>