<?xml version="1.0" encoding="UTF-8"?>
<svg width="92px" height="92px" viewBox="0 0 92 92" version="1.1" xmlns="http://www.w3.org/2000/svg" xmlns:xlink="http://www.w3.org/1999/xlink">
    <!-- Generator: Sketch 46.2 (44496) - http://www.bohemiancoding.com/sketch -->
    <title>ON Ball</title>
    <desc>Created with Sketch.</desc>
    <defs>
        <filter x="-6.0%" y="-5.9%" width="116.7%" height="116.5%" filterUnits="objectBoundingBox" id="filter-1">
            <feOffset dx="2" dy="2" in="SourceAlpha" result="shadowOffsetOuter1"></feOffset>
            <feGaussianBlur stdDeviation="2" in="shadowOffsetOuter1" result="shadowBlurOuter1"></feGaussianBlur>
            <feColorMatrix values="0 0 0 0 0   0 0 0 0 0   0 0 0 0 0  0 0 0 0.5 0" type="matrix" in="shadowBlurOuter1" result="shadowMatrixOuter1"></feColorMatrix>
            <feMerge>
                <feMergeNode in="shadowMatrixOuter1"></feMergeNode>
                <feMergeNode in="SourceGraphic"></feMergeNode>
            </feMerge>
        </filter>
    </defs>
    <g id="Page-1" stroke="none" stroke-width="1" fill="none" fill-rule="evenodd">
        <g id="ON-Ball" filter="url(#filter-1)" transform="translate(2.000000, 2.000000)">
            <path d="M41.998872,0.228131791 C65.0380025,0.228131791 83.8895381,19.0793949 83.8895381,42.1185254 C83.8895381,65.1582009 65.0380025,84.0097366 41.998872,84.0097366 C18.9591964,84.0097366 0.107933321,65.1582009 0.107933321,42.1185254 C0.107933321,19.0793949 18.9591964,0.228131791 41.998872,0.228131791" id="Fill-2" fill="#51AF46"></path>
            <path d="M29.0629545,21.7120412 C38.5024866,21.7120412 38.530015,29.7037405 38.530015,29.7037405 L38.530015,54.3234399 C38.530015,54.3234399 38.5163871,62.5536282 28.9078685,62.5536282 C19.2551954,62.5536282 19.2909006,54.3234399 19.2909006,54.3234399 L19.2909006,29.7037405 C19.2909006,29.7037405 19.2802708,21.7120412 29.0629545,21.7120412" id="Fill-3" fill="#FFFFFE"></path>
            <path d="M28.9852752,28.3055133 C31.4017823,28.3055133 31.4045079,30.9381597 31.4045079,30.9381597 L31.4017823,53.3354139 C31.4017823,53.3354139 31.4045079,55.9375337 28.9465719,55.9375337 C26.4720097,55.9375337 26.4913614,53.3354139 26.4913614,53.3354139 L26.494087,30.9381597 C26.494087,30.9381597 26.4801865,28.3055133 28.9852752,28.3055133" id="Fill-4" fill="#51AF46"></path>
            <path d="M51.2195393,62.0387644 C51.169661,62.0856446 51.0671789,62.0799208 51.0671789,62.0799208 L45.1098592,62.0799208 C45.1098592,62.0799208 45.0046515,62.0856446 44.9525927,62.0387644 C44.9024419,61.9886136 44.9048949,61.886404 44.9048949,61.886404 L44.9048949,22.3070373 C44.9048949,22.3070373 44.9024419,22.2075533 44.9525927,22.157675 C45.0046515,22.1047986 45.1098592,22.1023456 45.1098592,22.1023456 L52.4267026,22.1023456 C52.4267026,22.1023456 52.5152842,22.1162461 52.56489,22.1685774 C52.6177664,22.2184556 52.6305767,22.3070373 52.6305767,22.3070373 L56.8775893,41.1806502 C56.8775893,41.1806502 57.2926965,42.1242491 57.940569,42.0855457 C58.3115216,42.0751885 58.3837497,41.5845825 58.3837497,41.5845825 L58.3837497,22.3070373 C58.3837497,22.3070373 58.3837497,22.2075533 58.4330829,22.157675 C58.4854142,22.1047986 58.5881689,22.1023456 58.5881689,22.1023456 L64.4822549,22.1023456 C64.4822549,22.1023456 64.5844645,22.1047986 64.6340702,22.157675 C64.6864015,22.2075533 64.6864015,22.3070373 64.6864015,22.3070373 L64.6864015,61.886404 C64.6864015,61.886404 64.6864015,61.9752582 64.6340702,62.0245914 C64.5844645,62.0717441 64.4822549,62.0799208 64.4822549,62.0799208 L58.3837497,62.0799208 C58.3837497,62.0799208 58.1455332,62.0856446 57.9819979,62.0000611 C57.8190077,61.914205 57.7301535,61.7340436 57.7301535,61.7340436 L52.8306349,40.7600919 C52.8306349,40.7600919 52.7447788,39.9015313 51.9584464,39.6992926 C51.3440987,39.5965379 51.2724157,40.1312985 51.2724157,40.1312985 L51.2724157,61.886404 C51.2724157,61.886404 51.2724157,61.9886136 51.2195393,62.0387644" id="Fill-5" fill="#FFFFFE"></path>
        </g>
    </g>
</svg>