<?xml version="1.0" encoding="UTF-8"?>
<svg width="476px" height="159px" viewBox="0 0 476 159" version="1.1" xmlns="http://www.w3.org/2000/svg" xmlns:xlink="http://www.w3.org/1999/xlink">
    <!-- Generator: Sketch 52.4 (67378) - http://www.bohemiancoding.com/sketch -->
    <title>Slice 1</title>
    <desc>Created with Sketch.</desc>
    <g id="Page-1" stroke="none" stroke-width="1" fill="none" fill-rule="evenodd">
        <g id="connectionBracket" transform="translate(6.000000, 2.000000)" stroke="#FFFFFF">
            <path d="M0.4375,156.765625 L0.4375,26.3945312 L144.615254,26.3945312 M313.761967,26.3945312 L464.402344,26.3945312 L464.402344,156.765625" id="Shape" stroke-width="11"></path>
            <g id="link" transform="translate(157.000000, 0.000000)" fill="#FFFFFF" fill-rule="nonzero" stroke-width="3">
                <path d="M25.5000002,50.9996987 C11.4248851,50.9996987 0,39.5749337 0,25.5 C0,11.4250063 11.4248851,0.000301291971 25.5000002,0.000301291971 L58.5000002,0.000301291971 C72.5751151,0.000301291971 84.0000001,11.4250213 84.0000001,25.5 C84.015301,26.581895 83.4468742,27.5882194 82.5123816,28.133632 C81.5778889,28.6790447 80.4221113,28.6790447 79.4876187,28.133632 C78.553126,27.5882194 77.9846993,26.581895 78.0000001,25.5 C78.0000001,14.6451833 69.3548852,6.0002304 58.5000002,6.0002304 L25.5000002,6.0002304 C14.6451153,6.0002304 5.99999999,14.6451833 5.99999999,25.5 C5.99999999,36.3547717 14.6451153,44.9997696 25.5000002,44.9997696 L58.5000002,44.9997696 C59.5819079,44.9844689 60.5882443,45.552889 61.1336633,46.4873706 C61.6790824,47.4218522 61.6790824,48.5776161 61.1336633,49.5120977 C60.5882443,50.4465794 59.5819079,51.0149994 58.5000002,50.9996987 L25.5000002,50.9996987 Z M85.5000001,50.9996987 C71.4248852,50.9996987 60.0000002,39.5749337 60.0000002,25.5 C59.9846993,24.418105 60.5531261,23.4117806 61.4876187,22.866368 C62.4221114,22.3209553 63.577889,22.3209553 64.5123816,22.866368 C65.4468743,23.4117806 66.015301,24.418105 66.0000002,25.5 C66.0000002,36.3547717 74.6451151,44.9997696 85.5000001,44.9997696 L118.5,44.9997696 C129.354885,44.9997696 138,36.3547717 138,25.5 C138,14.6451833 129.354885,6.0002304 118.5,6.0002304 L85.5000001,6.0002304 C84.4180924,6.01553109 83.411756,5.44711105 82.866337,4.51262943 C82.3209179,3.57814781 82.3209179,2.42238388 82.866337,1.48790226 C83.411756,0.553420645 84.4180924,-0.0149993959 85.5000001,0.000301291971 L118.5,0.000301291971 C132.575115,0.000301291971 144,11.4250213 144,25.5 C144,39.5749337 132.575115,50.9996987 118.5,50.9996987 L85.5000001,50.9996987 Z" id="Shape"></path>
            </g>
        </g>
    </g>
</svg>