<?xml version="1.0" encoding="utf-8"?>
<!-- Generator: Adobe Illustrator 22.1.0, SVG Export Plug-In . SVG Version: 6.00 Build 0)  -->
<svg version="1.1" id="Layer_1" xmlns="http://www.w3.org/2000/svg" xmlns:xlink="http://www.w3.org/1999/xlink" x="0px" y="0px"
	 viewBox="0 0 396 396" style="enable-background:new 0 0 396 396;" xml:space="preserve">
<title>temperatureIcon</title>
<desc>Created with Sketch.</desc>
<title>temperatureIcon</title>
<desc>Created with Sketch.</desc>
<path d="M198,8C93.1,8,8,93.1,8,198s85.1,190,190,190s190-85.1,190-190S302.9,8,198,8z M289.1,318.9h-66V158.3
	c0-19.9-7.8-29.8-23.3-29.8c-8.5,0-15.2,3.2-19.9,9.5s-7,17.1-7,32.4v82.7h-66V81h61.7v27.9h0.6c14.8-21.2,35.3-31.8,61.4-31.8
	c19.2,0,33.8,5.7,43.6,17.1c9.8,11.4,14.7,27.8,14.7,49.2v175.5H289.1z"/>
</svg>
