<?xml version="1.0" encoding="UTF-8"?>
<svg width="53px" height="53px" viewBox="0 0 53 53" version="1.1" xmlns="http://www.w3.org/2000/svg" xmlns:xlink="http://www.w3.org/1999/xlink">
    <!-- Generator: Sketch 52.4 (67378) - http://www.bohemiancoding.com/sketch -->
    <title>Slice 1</title>
    <desc>Created with Sketch.</desc>
    <g id="Page-1" stroke="none" stroke-width="1" fill="none" fill-rule="evenodd">
        <g id="pulse" fill="#FFFFFF" fill-rule="nonzero">
            <path d="M51.167,0.334 L1.833,0.334 C1.004,0.334 0.333,1.005 0.333,1.834 L0.333,51.166 C0.333,51.995 1.004,52.666 1.833,52.666 L51.166,52.666 C51.995,52.666 52.666,51.995 52.666,51.166 L52.666,1.834 C52.667,1.005 51.995,0.334 51.167,0.334 Z M49.667,3.334 L49.667,32.5 L45.333,32.5 L45.333,21.834 C45.333,20.73 44.437,19.834 43.333,19.834 L32.5,19.834 C31.396,19.834 30.5,20.73 30.5,21.834 L30.5,32.5 L27.167,32.5 L27.167,21.834 C27.167,20.73 26.271,19.834 25.167,19.834 L18.167,19.834 C17.063,19.834 16.167,20.73 16.167,21.834 L16.167,32.5 L10.834,32.5 L10.834,21.834 C10.834,20.73 9.938,19.834 8.834,19.834 L3.334,19.834 L3.334,3.334 L49.667,3.334 Z M3.333,49.666 L3.333,23.834 L6.833,23.834 L6.833,34.5 C6.833,35.604 7.729,36.5 8.833,36.5 L18.166,36.5 C19.27,36.5 20.166,35.604 20.166,34.5 L20.166,23.834 L23.166,23.834 L23.166,34.5 C23.166,35.604 24.062,36.5 25.166,36.5 L32.5,36.5 C33.604,36.5 34.5,35.604 34.5,34.5 L34.5,23.834 L41.332,23.834 L41.332,34.5 C41.332,35.604 42.228,36.5 43.332,36.5 L49.666,36.5 L49.666,49.666 L3.333,49.666 Z" id="Shape"></path>
        </g>
    </g>
</svg>