<?xml version="1.0" encoding="utf-8"?>
<!-- Generator: Adobe Illustrator 22.1.0, SVG Export Plug-In . SVG Version: 6.00 Build 0)  -->
<svg version="1.1" id="Layer_1" xmlns="http://www.w3.org/2000/svg" xmlns:xlink="http://www.w3.org/1999/xlink" x="0px" y="0px"
	 viewBox="0 0 500 722" style="enable-background:new 0 0 500 722;" xml:space="preserve">
<style type="text/css">
	.st0{fill:#DDDDDD;}
</style>
<g id="HPzAWe.tif">
	<g>
		<path class="st0" d="M91.1,722.4c-0.9,0-1.8,0-2.7,0c-1.5-1-3.3-0.7-5-0.9C63.2,719,45.5,711,30.7,697.1
			c-20.4-19.1-30.1-43-30.1-70.8c0-83.7,0-167.4,0-251.1c0-5.7,0.2-11.4,1.2-17.1c5.5-32.3,22.7-56,51.9-70.8
			c1.8-0.9,2.5-1.8,2.5-3.9c-0.1-93.3-0.1-186.5-0.1-279.8c0-0.9,0-1.8,0-2.7c129.6,0,258.9,0,388.4,0c0,1,0,1.9,0,2.8
			c0,93.3,0,186.5-0.1,279.8c0,2,0.6,2.9,2.4,3.7c7.5,3.5,14.4,7.9,20.6,13.4c20.7,18.4,31.5,41.5,32.6,69.2c0,1.6,0,3.2,0,4.8
			c0,83.7,0,167.3,0,251c0,1.4,0,2.9,0,4.3c-0.3,16.5-4.4,31.9-12.9,46c-15.9,26.2-39.2,41.4-69.6,45.6c-2.1,0.3-4.3-0.1-6.4,0.9
			c-1.1,0-2.1,0-3.2,0c-0.6-0.8-1.4-0.4-2.1-0.4c-104.3,0-208.6,0-312.9,0C92.4,721.9,91.6,721.5,91.1,722.4z M111.8,278.1
			c92.6,0,185,0,277.3,0c0-74,0-147.9,0-221.8c-92.5,0-184.9,0-277.3,0C111.8,130.3,111.8,204.2,111.8,278.1z M294.5,500.5
			c0.7-0.8,1.1-1.2,1.4-1.6c17.1-17.8,34.2-35.7,51.4-53.4c5.2-5.4,10-11.1,15.8-15.9c1.5-1.2,2.1-2.9,2.3-4.8
			c0.4-4.4-1.4-7.9-4.5-10.8c-6.5-5.9-13-11.8-19.5-17.7c-2.8-2.6-5.9-4.8-8.3-7.9c-1.9-2.5-4.4-3.5-7.4-3.3
			c-3.9,0.2-6.8,2.2-9.5,4.9c-21.3,21.4-42.7,42.7-64.1,64.1c-0.6,0.6-1,1.4-1.5,2.1c-0.7-0.6-0.9-0.8-1.1-1
			c-21.7-21.7-43.5-43.5-65.2-65.2c-0.5-0.5-0.9-1-1.3-1.6c-2.1-3-5-4-8.6-3.3c-3.9,0.8-6.6,3.2-9.3,5.9c-9.3,9.1-18,18.6-27.7,27.3
			c-1.2,1-1.8,2.4-2.1,4c-0.8,4.8,1.2,8.6,4.5,11.8c21.5,21.5,43,42.9,64.4,64.4c0.6,0.6,1.4,1,1.6,2.1c-0.6,0.5-1.2,1-1.8,1.6
			c-20.6,20.6-41.1,41.1-61.7,61.7c-1.4,1.4-2.7,2.8-4.4,4c-1.5,1.1-2.4,2.7-2.7,4.6c-0.7,4.7,1.3,8.3,4.4,11.4
			c7.8,7.8,15.5,15.5,23.3,23.3c1.7,1.7,3.5,3.4,5,5.4c1.2,1.7,3,2.5,5.1,2.7c4.9,0.5,8.4-2,11.6-5.2c21.3-21.3,42.5-42.5,63.8-63.8
			c0.6-0.6,1-1.3,1.9-1.6c0.2,0.2,0.5,0.4,0.7,0.6c21.7,21.7,43.4,43.4,65.1,65.1c0.5,0.5,0.9,1,1.3,1.6c1.5,2.1,3.5,3.1,6,3.3
			c4.4,0.3,7.7-1.7,10.7-4.7c8.5-8.5,16.9-17.2,25.6-25.5c4.5-4.3,4.4-15.3,0-19.6c-21.2-21-42.2-42.1-63.3-63.2
			C296,501.6,295.3,501.1,294.5,500.5z"/>
		<path class="st0" d="M91.1,722.4c0.4-0.8,1.2-0.5,1.8-0.5c104.3,0,208.6,0,312.9,0c0.7,0,1.5-0.4,2.1,0.4
			C302.4,722.4,196.8,722.4,91.1,722.4z"/>
		<path class="st0" d="M500.5,629.9h-0.2h-0.2c0-1.4,0-2.9,0-4.3c0-83.7,0-167.3,0-251c0-1.6,0-3.2,0-4.8c0.1,0,0.3,0,0.4,0
			C500.5,456.5,500.5,543.2,500.5,629.9z"/>
		<path class="st0" d="M139.5,111.8c27.8,0,55.3,0,83,0c0,27.7,0,55.3,0,83c-27.6,0-55.2,0-83,0
			C139.5,167.2,139.5,139.6,139.5,111.8z"/>
		<path class="st0" d="M278.3,111.8c27.7,0,55.2,0,82.9,0c0,27.7,0,55.3,0,83.1c-27.6,0-55.2,0-82.9,0
			C278.3,167.2,278.3,139.6,278.3,111.8z"/>
	</g>
</g>
</svg>
