<?xml version="1.0" encoding="utf-8"?>
<!-- Generator: Adobe Illustrator 22.1.0, SVG Export Plug-In . SVG Version: 6.00 Build 0)  -->
<svg version="1.1" id="Layer_1" xmlns="http://www.w3.org/2000/svg" xmlns:xlink="http://www.w3.org/1999/xlink" x="0px" y="0px"
	 viewBox="0 0 529 300" style="enable-background:new 0 0 529 300;" xml:space="preserve">
<style type="text/css">
	.st0{fill:none;}
	.st1{fill:url(#SVGID_1_);}
	.st2{fill:#545960;}
</style>
<path class="st0" d="M136.6,260.1c-18.2,0-36.7-11.1-36.7-32.4v-4.4h14.4v4.4c0,14.2,14,18,22.2,18c5.9,0,11.7-1.8,15.9-4.8
	c4.2-3.2,6.4-7.7,6.4-13.2c0-16.7-8.7-19.6-25.4-23.6l-0.3-0.1c-14-3.5-33.2-8.4-33.2-32.9c0-21.6,18.8-32.9,37.4-32.9
	c9.3,0,17.8,2.7,24.1,7.5c7.6,5.8,11.7,14.1,11.7,24v4.4h-14.4v-4.4c0-5.1-2.1-9.5-6.1-12.5c-3.9-3-9.3-4.6-15.3-4.6
	c-11.4,0-23,6.4-23,18.5c0,12.7,6.9,15,22.4,18.8l0.4,0.1c15.2,3.9,36.1,9.1,36.1,37.7c0,10.1-4.2,18.7-12.1,24.7
	C154.6,257.4,146.1,260.1,136.6,260.1z M202.3,195.9h12.3v-13.7h-12.3V164h-13.9v18.2h-11.7v13.7h11.7v64.3h13.9V195.9z
	 M234.6,209.6c0-6.7,5.7-11.2,14.1-11.2c4.6,0,8.5,1.3,11.3,3.9l3.1,2.7l9.9-9.4l-3.4-3.2c-5.1-4.9-12.6-7.6-20.9-7.6
	c-5.1,0-9.9,1.1-14.1,3.2v-0.9h-13.7v72.6h13.7V209.6z M333.6,251.1v6.7h13.9v-72.4h-13.9v6.6c-6.8-5.8-15.6-9.1-24.7-9.1
	c-21.4,0-38.8,17.3-38.8,38.6s17.4,38.6,38.8,38.6C318,260.1,326.8,256.8,333.6,251.1z M333.6,221.5c0,13.7-11.1,24.9-24.7,24.9
	c-13.7,0-24.9-11.2-24.9-24.9s11.2-24.9,24.9-24.9C322.5,196.5,333.6,207.7,333.6,221.5z M380.2,196.9h12.3v-13.7h-12.3V165h-13.9
	v18.2h-11.7v13.7h11.7v62.8h13.9V196.9z M453.6,251.1v6.7h13.9v-72.4h-13.9v6.6c-6.8-5.8-15.6-9.1-24.7-9.1
	c-21.4,0-38.8,17.3-38.8,38.6s17.4,38.6,38.8,38.6C438,260.1,446.7,256.8,453.6,251.1z M453.6,221.5c0,13.7-11.1,24.9-24.7,24.9
	c-13.7,0-24.9-11.2-24.9-24.9s11.2-24.9,24.9-24.9C442.5,196.5,453.6,207.7,453.6,221.5z"/>
<linearGradient id="SVGID_1_" gradientUnits="userSpaceOnUse" x1="13" y1="-846.8437" x2="516.8226" y2="-846.8437" gradientTransform="matrix(1 0 0 -1 0 -697.3)">
	<stop  offset="0" style="stop-color:#54B948"/>
	<stop  offset="0.2927" style="stop-color:#4FB248"/>
	<stop  offset="0.6787" style="stop-color:#3BA447"/>
	<stop  offset="1" style="stop-color:#219647"/>
</linearGradient>
<path class="st1" d="M13,191.9c0.3-59.5,43.5-106.3,105.3-99.5C126.8,16.5,263-23.7,310.2,80.3c67.4-32.9,125.9,3.9,132.4,69.6
	c64.9-16,88.4,41.2,65.9,72.4c11.5-29.9-13.8-75.3-73-59.7c-5.6-56.6-78.5-94.5-132.3-49c-40.6-89.4-149.5-63.1-156.8,2.2
	c-53.2-5.9-85,35.2-85.3,86.5c0.9,41.8,26.3,70.2,65.5,76.3C62.7,293,14.3,253.9,13,191.9L13,191.9z"/>
<g>
	<polygon class="st2" points="354.6,187.8 354.6,196.9 366.3,196.9 366.3,200.6 380.2,200.6 380.2,196.9 392.5,196.9 392.5,187.8 	
		"/>
	<rect x="188.4" y="164" class="st2" width="13.9" height="8"/>
	<path class="st2" d="M395.5,201.6c-2.3,3.9-4,8.2-4.9,12.8h14.2c1.5-5.2,4.7-9.6,8.8-12.8H395.5z"/>
	<polygon class="st2" points="214.6,182.2 202.3,182.2 202.3,173 188.4,173 188.4,182.2 176.7,182.2 176.7,186.8 214.6,186.8 	"/>
	<rect x="333.5" y="185.3" class="st2" width="13.9" height="1.5"/>
	<path class="st2" d="M453.5,221.4c0,2.4-0.3,4.6-0.9,6.8h14.8v-12.8h-14.6C453.3,217.3,453.5,219.3,453.5,221.4z"/>
	<path class="st2" d="M333.5,191.9c-1.8-1.6-3.8-2.9-5.9-4.1h-37.8c-5.5,3.1-10.2,7.5-13.6,12.8h19c3.9-2.6,8.6-4.1,13.6-4.1
		s9.7,1.5,13.6,4.1h25.1v-12.8h-13.9v4.1H333.5z"/>
	<path class="st2" d="M260.7,186.8c-3.7-1.4-7.8-2.2-12.1-2.2c-4.1,0-8.1,0.8-11.7,2.2H260.7z"/>
	<path class="st2" d="M390.4,215.4c-0.3,2-0.5,4-0.5,6c0,2.3,0.2,4.6,0.6,6.8h14.2c-0.6-2.2-0.9-4.4-0.9-6.8c0-2.1,0.3-4.1,0.7-6
		H390.4z"/>
	<rect x="366.3" y="201.6" class="st2" width="13.9" height="12.8"/>
	<polygon class="st2" points="202.3,200.6 202.3,195.9 214.6,195.9 214.6,187.8 176.7,187.8 176.7,195.9 188.4,195.9 188.4,200.6 	
		"/>
	<path class="st2" d="M467.4,253.8V243h-26.3c-3.6,2.1-7.8,3.3-12.3,3.3s-8.7-1.2-12.4-3.3h-19.8c2.9,4.3,6.7,8,11.1,10.8h42
		c1.3-0.8,2.6-1.8,3.8-2.8v2.8H467.4z"/>
	<rect x="366.3" y="165" class="st2" width="13.9" height="7"/>
	<rect x="158.6" y="173" class="st2" width="14.4" height="1.1"/>
	<path class="st2" d="M162.2,146.3c-0.3-0.2-0.6-0.5-0.9-0.7c-6.3-4.8-14.8-7.5-24.1-7.5c-9.2,0-18.5,2.8-25.5,8.2H162.2z"/>
	<path class="st2" d="M102.1,159.2h17.2c4.4-4.4,11.3-6.6,18-6.6c6,0,11.4,1.6,15.3,4.6c0.8,0.6,1.5,1.3,2.1,2h16.6
		c-1.6-4.5-4.3-8.5-7.9-11.8h-52.8C106.9,150.5,103.9,154.4,102.1,159.2z"/>
	<rect x="366.3" y="229.2" class="st2" width="13.9" height="12.8"/>
	<path class="st2" d="M114.3,171c0-4.4,1.5-8,4-10.9h-16.6c-1.2,3.3-1.8,6.9-1.8,10.9c0,0.3,0,0.6,0,0.9h14.4
		C114.3,171.7,114.3,171.4,114.3,171z"/>
	<path class="st2" d="M234.6,209.5c0-3.3,1.3-6,3.7-8h-17.4v12.8h13.7L234.6,209.5L234.6,209.5z"/>
	<path class="st2" d="M114.4,173H100c0.2,5.6,1.5,10.1,3.6,13.8h22.2C118.5,184.2,114.9,180.8,114.4,173z"/>
	<path class="st2" d="M248.6,198.3c3.5,0,6.6,0.8,9.1,2.3h9.8l5.4-5.1l-3.4-3.2c-1.9-1.8-4.1-3.3-6.5-4.5h-28.4c0,0,0,0-0.1,0l0,0
		h-13.7v12.8h18.8C242,199.1,245.1,198.3,248.6,198.3z"/>
	<path class="st2" d="M291.7,186.8h34c-5.2-2.6-11-4-16.9-4C302.7,182.8,296.8,184.2,291.7,186.8z"/>
	<path class="st2" d="M284.8,228.2c-0.6-2.2-0.9-4.4-0.9-6.8c0-2.1,0.3-4.1,0.7-6h-14.2c-0.3,2-0.5,4-0.5,6c0,2.3,0.2,4.6,0.6,6.8
		H284.8z"/>
	<rect x="220.9" y="215.4" class="st2" width="13.7" height="44.2"/>
	<rect x="188.4" y="201.6" class="st2" width="13.9" height="58.6"/>
	<path class="st2" d="M137.1,190l-0.4-0.1c-2.9-0.7-5.6-1.4-7.9-2.1h-24.7c6.4,10.5,19,13.7,29,16.2l0.3,0.1
		c16.7,4,25.4,6.9,25.4,23.6c0,5.5-2.2,9.9-6.4,13.2c-4.1,3.1-9.9,4.8-15.9,4.8c-8.3,0-22.2-3.8-22.2-18v-4.4H99.9v4.4
		c0,21.3,18.4,32.4,36.7,32.4c9.5,0,18-2.7,24.6-7.7c7.9-6,12.1-14.6,12.1-24.7C173.2,199.1,152.3,193.8,137.1,190z"/>
	<path class="st2" d="M158.6,169.6v2.3H173v-2.3c0-3.4-0.5-6.5-1.4-9.5h-16.1C157.5,162.8,158.6,166,158.6,169.6z"/>
	<polygon class="st2" points="366.3,173 366.3,183.2 354.6,183.2 354.6,186.8 392.5,186.8 392.5,183.2 380.2,183.2 380.2,173 	"/>
	<rect x="453.5" y="254.8" class="st2" width="13.9" height="2.9"/>
	<path class="st2" d="M409.3,254.8c5.7,3.3,12.4,5.2,19.4,5.2c6.9,0,13.6-1.9,19.3-5.2H409.3z"/>
	<path class="st2" d="M263,204.9l3.5-3.3h-7.3c0.2,0.2,0.5,0.4,0.7,0.6L263,204.9z"/>
	<rect x="366.3" y="243" class="st2" width="13.9" height="16.7"/>
	<path class="st2" d="M332.3,229.2c-3.3,9.9-12.6,17.1-23.5,17.1c-11,0-20.4-7.2-23.7-17.1h-14.3c3.6,17.6,19.3,30.8,38,30.8
		c9.2,0,17.9-3.3,24.7-9v6.7h13.9v-28.5L332.3,229.2L332.3,229.2z"/>
	<path class="st2" d="M411.6,186.8h34c-5.2-2.6-11-4-16.9-4C422.6,182.8,416.8,184.2,411.6,186.8z"/>
	<path class="st2" d="M332.6,228.2h14.8v-12.8h-14.6c0.5,1.9,0.7,3.9,0.7,6C333.5,223.8,333.2,226,332.6,228.2z"/>
	<rect x="366.3" y="215.4" class="st2" width="13.9" height="12.8"/>
	<path class="st2" d="M347.4,201.6h-23.7c4.1,3.2,7.3,7.7,8.8,12.8h14.9L347.4,201.6L347.4,201.6z"/>
	<path class="st2" d="M293.7,201.6h-18.2c-2.3,3.9-4,8.2-4.9,12.8h14.2C286.4,209.2,289.6,204.8,293.7,201.6z"/>
	<path class="st2" d="M405.1,229.2h-14.3c1,4.6,2.8,8.9,5.2,12.8h18.8C410.3,239,406.9,234.5,405.1,229.2z"/>
	<path class="st2" d="M452.3,229.2c-1.7,5.3-5.1,9.7-9.6,12.8h24.7v-12.8H452.3z"/>
	<rect x="453.5" y="185.3" class="st2" width="13.9" height="1.5"/>
	<path class="st2" d="M453.5,187.8v4.1c-1.9-1.6-3.8-2.9-5.9-4.1h-37.8c-5.5,3.1-10.2,7.5-13.6,12.8h19c3.9-2.6,8.6-4.1,13.6-4.1
		s9.7,1.5,13.6,4.1h25.1v-12.8H453.5z"/>
	<path class="st2" d="M452.5,214.4h14.9v-12.8h-23.7C447.9,204.8,451,209.2,452.5,214.4z"/>
</g>
</svg>
