<?xml version="1.0" encoding="utf-8"?>
<!-- Generator: Adobe Illustrator 22.1.0, SVG Export Plug-In . SVG Version: 6.00 Build 0)  -->
<svg version="1.1" id="Layer_1" xmlns="http://www.w3.org/2000/svg" xmlns:xlink="http://www.w3.org/1999/xlink" x="0px" y="0px"
	 viewBox="0 0 600 300" style="enable-background:new 0 0 600 300;" xml:space="preserve">
<style type="text/css">
	.st0{fill:none;}
	.st1{fill:#FFFFFF;}
	.st2{fill:url(#SVGID_1_);}
</style>
<path class="st0" d="M170.6,260.1c-18.2,0-36.7-11.1-36.7-32.4v-4.4h14.4v4.4c0,14.2,14,18,22.2,18c5.9,0,11.7-1.8,15.9-4.8
	c4.2-3.2,6.4-7.7,6.4-13.2c0-16.7-8.7-19.6-25.4-23.6l-0.3-0.1c-14-3.5-33.2-8.4-33.2-32.9c0-21.6,18.8-32.9,37.4-32.9
	c9.3,0,17.8,2.7,24.1,7.5c7.6,5.8,11.7,14.1,11.7,24v4.4h-14.4v-4.4c0-5.1-2.1-9.5-6.1-12.5c-3.9-3-9.3-4.6-15.3-4.6
	c-11.4,0-23,6.4-23,18.5c0,12.7,6.9,15,22.4,18.8l0.4,0.1c15.2,3.9,36.1,9.1,36.1,37.7c0,10.1-4.2,18.7-12.1,24.7
	C188.6,257.4,180.1,260.1,170.6,260.1z M236.3,195.9h12.3v-13.7h-12.3V164h-13.9v18.2h-11.7v13.7h11.7v64.3h13.9V195.9z
	 M268.6,209.6c0-6.7,5.7-11.2,14.1-11.2c4.6,0,8.5,1.3,11.3,3.9l3.1,2.7l9.9-9.4l-3.4-3.2c-5.1-4.9-12.6-7.6-20.9-7.6
	c-5.1,0-9.9,1.1-14.1,3.2v-0.9h-13.7v72.6h13.7V209.6z M367.6,251.1v6.7h13.9v-72.4h-13.9v6.6c-6.8-5.8-15.6-9.1-24.7-9.1
	c-21.4,0-38.8,17.3-38.8,38.6s17.4,38.6,38.8,38.6C352,260.1,360.8,256.8,367.6,251.1z M367.6,221.5c0,13.7-11.1,24.9-24.7,24.9
	c-13.7,0-24.9-11.2-24.9-24.9s11.2-24.9,24.9-24.9C356.5,196.5,367.6,207.7,367.6,221.5z M414.2,196.9h12.3v-13.7h-12.3V165h-13.9
	v18.2h-11.7v13.7h11.7v62.8h13.9V196.9z M487.6,251.1v6.7h13.9v-72.4h-13.9v6.6c-6.8-5.8-15.6-9.1-24.7-9.1
	c-21.4,0-38.8,17.3-38.8,38.6s17.4,38.6,38.8,38.6C472,260.1,480.7,256.8,487.6,251.1z M487.6,221.5c0,13.7-11.1,24.9-24.7,24.9
	c-13.7,0-24.9-11.2-24.9-24.9s11.2-24.9,24.9-24.9C476.5,196.5,487.6,207.7,487.6,221.5z"/>
<g>
	<path class="st1" d="M269,187.8h-0.4v0.2C268.7,187.9,268.9,187.8,269,187.8z"/>
	<rect x="400.3" y="243.1" class="st1" width="13.9" height="16.6"/>
	<path class="st1" d="M366.6,214.4h14.9v-12.8h-23.7C361.9,204.7,365.1,209.2,366.6,214.4z"/>
	<path class="st1" d="M439,214.4c1.5-5.2,4.7-9.6,8.9-12.8h-18.3c-2.4,3.9-4,8.2-4.9,12.8H439z"/>
	<path class="st1" d="M319,214.4c1.5-5.2,4.7-9.6,8.9-12.8h-18.3c-2.4,3.9-4,8.2-4.9,12.8H319z"/>
	<rect x="400.3" y="201.6" class="st1" width="13.9" height="12.8"/>
	<path class="st1" d="M268.6,209.6c0-3.3,1.4-6,3.8-8h-17.5v12.8h13.7V209.6z"/>
	<path class="st1" d="M297.1,204.9l3.6-3.4h-7.5c0.3,0.2,0.6,0.5,0.8,0.7L297.1,204.9z"/>
	<path class="st1" d="M273.8,200.6c2.3-1.4,5.4-2.2,8.9-2.2s6.5,0.7,9,2.2h10l5.3-5l-3.4-3.2c-1.9-1.9-4.2-3.4-6.8-4.6H269
		c-0.1,0.1-0.3,0.1-0.4,0.2v-0.2h-13.7v12.8H273.8z"/>
	<path class="st1" d="M310.3,200.6h19.1c3.9-2.5,8.5-4,13.5-4s9.6,1.4,13.5,4h25.1v-12.8h-13.9v4.2c-1.9-1.6-3.9-3-6-4.2H324
		C318.5,190.8,313.7,195.3,310.3,200.6z"/>
	<path class="st1" d="M197,201.3c-7.4-6.7-17.5-9.2-25.9-11.4l-0.4-0.1c-3-0.7-5.6-1.4-8-2.1H138c6.4,10.5,19,13.7,29,16.2l0.3,0.1
		c16.7,4,25.4,6.9,25.4,23.6c0,5.5-2.2,10-6.4,13.2c-4.2,3-10,4.8-15.9,4.8c-8.2,0-22.2-3.8-22.2-18v-4.4h-14.4v4.4
		c0,21.3,18.5,32.4,36.7,32.4c9.5,0,18-2.7,24.5-7.7c7.9-6,12.1-14.6,12.1-24.7c0-12.6-4.1-20.7-9.9-26.1H197V201.3L197,201.3z"/>
	<polygon class="st1" points="400.3,196.9 400.3,200.6 414.2,200.6 414.2,196.9 426.5,196.9 426.5,187.8 388.6,187.8 388.6,196.9 	
		"/>
	<path class="st1" d="M424.7,228.1h14.2c-0.6-2.1-0.9-4.4-0.9-6.7c0-2.1,0.3-4.1,0.8-6.1h-14.2c-0.3,2-0.5,4-0.5,6.1
		C424.1,223.7,424.3,226,424.7,228.1z"/>
	<polygon class="st1" points="222.4,195.9 222.4,200.6 236.3,200.6 236.3,195.9 248.6,195.9 248.6,187.8 210.7,187.8 210.7,195.9 	
		"/>
	<path class="st1" d="M148.4,172.9H134c0.2,5.6,1.5,10.1,3.6,13.8h22.2C152.4,184.2,148.8,180.7,148.4,172.9z"/>
	<path class="st1" d="M487.6,191.9c-1.9-1.6-3.9-3-6-4.2H444c-5.6,3.1-10.3,7.5-13.7,12.8h19.1c3.9-2.5,8.5-4,13.5-4s9.6,1.4,13.5,4
		h25.1v-12.8h-13.9V191.9z"/>
	<path class="st1" d="M476.7,242.1h24.8v-12.9h-15.1C484.7,234.4,481.2,239,476.7,242.1z"/>
	<path class="st1" d="M487.6,221.4c0,2.3-0.3,4.6-0.9,6.7h14.8v-12.8h-14.6C487.3,217.3,487.6,219.3,487.6,221.4z"/>
	<path class="st1" d="M486.6,214.4h14.9v-12.8h-23.7C481.9,204.7,485.1,209.2,486.6,214.4z"/>
	<polygon class="st1" points="400.3,183.1 388.6,183.1 388.6,186.8 426.5,186.8 426.5,183.1 414.2,183.1 414.2,172.9 400.3,172.9 	
		"/>
	<rect x="400.3" y="215.4" class="st1" width="13.9" height="12.8"/>
	<path class="st1" d="M192.7,169.6v2.3h14.4v-2.3c0-3.4-0.5-6.5-1.4-9.5h-16.1C191.6,162.8,192.7,166,192.7,169.6z"/>
	<path class="st1" d="M366.7,228.1h14.8v-12.8h-14.6c0.5,2,0.7,4,0.7,6.1C367.6,223.8,367.3,226,366.7,228.1z"/>
	<path class="st1" d="M318,221.4c0-2.1,0.3-4.1,0.8-6.1h-14.2c-0.3,2-0.5,4-0.5,6.1c0,2.3,0.2,4.5,0.6,6.7h14.2
		C318.3,226,318,223.8,318,221.4z"/>
	<path class="st1" d="M449,242.1c-4.5-3.1-8-7.6-9.7-12.9h-14.4c1,4.7,2.8,9,5.2,12.9H449z"/>
	<path class="st1" d="M342.9,246.4c-11,0-20.4-7.2-23.7-17.2h-14.4c3.6,17.6,19.3,30.9,38,30.9c9.1,0,17.9-3.3,24.7-9v6.7h13.9
		v-28.6h-15.1C363.1,239.1,353.8,246.4,342.9,246.4z"/>
	<rect x="400.3" y="229.1" class="st1" width="13.9" height="12.9"/>
	<path class="st1" d="M462.9,246.4c-4.5,0-8.7-1.2-12.3-3.3h-19.8c2.9,4.3,6.7,8,11.1,10.8h41.9c1.3-0.9,2.6-1.8,3.8-2.8v2.8h13.9
		v-10.8h-26.4C471.5,245.1,467.4,246.4,462.9,246.4z"/>
	<path class="st1" d="M462.9,260.1c6.8,0,13.4-1.9,19.2-5.2h-38.6C449.2,258.2,455.8,260.1,462.9,260.1z"/>
	<rect x="487.6" y="254.9" class="st1" width="13.9" height="2.9"/>
	<rect x="254.9" y="215.4" class="st1" width="13.7" height="44.3"/>
	<path class="st1" d="M195.4,145.6c-6.3-4.8-14.8-7.5-24.1-7.5c-9.2,0-18.5,2.8-25.5,8.2h50.4C196,146.1,195.7,145.9,195.4,145.6z"
		/>
	<rect x="222.4" y="201.6" class="st1" width="13.9" height="58.6"/>
	<rect x="487.6" y="185.4" class="st1" width="13.9" height="1.4"/>
	<rect x="222.4" y="163.9" class="st1" width="13.9" height="8"/>
	<path class="st1" d="M171.3,152.6c6,0,11.4,1.6,15.3,4.6c0.8,0.6,1.5,1.3,2.2,2h16.6c-1.6-4.5-4.3-8.5-7.9-11.8h-52.8
		c-3.7,3.1-6.6,7.1-8.5,11.8h17.2C157.7,154.8,164.5,152.6,171.3,152.6z"/>
	<rect x="400.3" y="164.9" class="st1" width="13.9" height="7"/>
	<path class="st1" d="M462.9,182.9c-6.1,0-11.9,1.4-17,3.9h33.7C474.5,184.2,468.8,182.9,462.9,182.9z"/>
	<rect x="367.6" y="185.4" class="st1" width="13.9" height="1.4"/>
	<path class="st1" d="M325.9,186.8h33.7c-5.2-2.5-10.9-3.9-16.8-3.9C336.8,182.9,331,184.3,325.9,186.8z"/>
	<path class="st1" d="M271.4,186.8h23.1c-3.6-1.3-7.6-2-11.7-2C278.7,184.7,274.9,185.4,271.4,186.8z"/>
	<rect x="192.7" y="172.9" class="st1" width="14.4" height="1.1"/>
	<polygon class="st1" points="210.7,182.1 210.7,186.8 248.6,186.8 248.6,182.1 236.3,182.1 236.3,172.9 222.4,172.9 222.4,182.1 	
		"/>
	<path class="st1" d="M148.3,171.1c0-4.4,1.5-8,4-10.9h-16.6c-1.2,3.3-1.8,6.9-1.8,10.9c0,0.3,0,0.6,0,0.9h14.4
		C148.3,171.7,148.3,171.4,148.3,171.1z"/>
</g>
<linearGradient id="SVGID_1_" gradientUnits="userSpaceOnUse" x1="47" y1="1128.8436" x2="550.8226" y2="1128.8436" gradientTransform="matrix(1 0 0 1 0 -979.3)">
	<stop  offset="0" style="stop-color:#54B948"/>
	<stop  offset="0.2927" style="stop-color:#4FB248"/>
	<stop  offset="0.6787" style="stop-color:#3BA447"/>
	<stop  offset="1" style="stop-color:#219647"/>
</linearGradient>
<path class="st2" d="M47,191.9c0.3-59.5,43.5-106.3,105.3-99.5C160.8,16.5,297-23.7,344.2,80.3c67.4-32.9,125.9,3.9,132.4,69.6
	c64.9-16,88.4,41.2,65.9,72.4c11.5-29.9-13.8-75.3-73-59.7c-5.6-56.6-78.5-94.5-132.3-49c-40.6-89.4-149.5-63.1-156.8,2.2
	c-53.2-5.9-85,35.2-85.3,86.5c0.9,41.8,26.3,70.2,65.5,76.3C96.7,293,48.3,253.9,47,191.9L47,191.9z"/>
</svg>
