<?xml version="1.0" encoding="utf-8"?>
<!-- Generator: Adobe Illustrator 22.1.0, SVG Export Plug-In . SVG Version: 6.00 Build 0)  -->
<svg version="1.1" id="Layer_1" xmlns="http://www.w3.org/2000/svg" xmlns:xlink="http://www.w3.org/1999/xlink" x="0px" y="0px"
	 viewBox="0 0 300 300" style="enable-background:new 0 0 300 300;" xml:space="preserve">
<style type="text/css">
	.st0{fill:url(#SVGID_1_);}
	.st1{fill:url(#SVGID_2_);}
	.st2{fill:url(#SVGID_3_);}
	.st3{fill:#333333;}
	.st4{opacity:0.75;fill:url(#SVGID_4_);enable-background:new    ;}
	.st5{opacity:0.68;}
	.st6{fill:url(#SVGID_5_);}
</style>
<g>
	<linearGradient id="SVGID_1_" gradientUnits="userSpaceOnUse" x1="59.64" y1="59.64" x2="228.1079" y2="228.1079">
		<stop  offset="0" style="stop-color:#444444"/>
		<stop  offset="1" style="stop-color:#DDDDDD"/>
	</linearGradient>
	<circle class="st0" cx="150" cy="150" r="140"/>
	<linearGradient id="SVGID_2_" gradientUnits="userSpaceOnUse" x1="290" y1="150" x2="10" y2="150">
		<stop  offset="0" style="stop-color:#666666"/>
		<stop  offset="1" style="stop-color:#DDDDDD"/>
	</linearGradient>
	<path class="st1" d="M150,13.7c36.4,0,70.6,14.2,96.4,39.9s39.9,60,39.9,96.4s-14.2,70.6-39.9,96.4s-60,39.9-96.4,39.9
		s-70.6-14.2-96.4-39.9s-39.9-60-39.9-96.4s14.2-70.6,39.9-96.4S113.6,13.7,150,13.7 M150,10C72.7,10,10,72.7,10,150
		s62.7,140,140,140s140-62.7,140-140S227.3,10,150,10L150,10z"/>
</g>
<g>
	<linearGradient id="SVGID_3_" gradientUnits="userSpaceOnUse" x1="115.9553" y1="59.5987" x2="183.9623" y2="240.1803">
		<stop  offset="0" style="stop-color:#FF4040"/>
		<stop  offset="1" style="stop-color:#890C0C"/>
	</linearGradient>
	<circle class="st2" cx="150" cy="150" r="97.8"/>
	<path class="st3" d="M150,53.1c53.4,0,96.9,43.5,96.9,96.9s-43.5,96.9-96.9,96.9S53.1,203.4,53.1,150S96.6,53.1,150,53.1 M150,51.3
		c-54.5,0-98.7,44.2-98.7,98.7s44.2,98.7,98.7,98.7s98.7-44.2,98.7-98.7S204.5,51.3,150,51.3L150,51.3z"/>
</g>
<radialGradient id="SVGID_4_" cx="150" cy="150" r="82.5" gradientUnits="userSpaceOnUse">
	<stop  offset="0" style="stop-color:#FFA2A2"/>
	<stop  offset="0.1078" style="stop-color:#FF8686"/>
	<stop  offset="0.2422" style="stop-color:#FF6A6A"/>
	<stop  offset="0.3875" style="stop-color:#FF5454"/>
	<stop  offset="0.5471" style="stop-color:#FF4545"/>
	<stop  offset="0.7318" style="stop-color:#FF3C3C"/>
	<stop  offset="1" style="stop-color:#FF3939"/>
</radialGradient>
<circle class="st4" cx="150" cy="150" r="82.5"/>
<g class="st5">
	<linearGradient id="SVGID_5_" gradientUnits="userSpaceOnUse" x1="150" y1="162.1796" x2="150" y2="71.2185">
		<stop  offset="0.2337" style="stop-color:#FFFFFF;stop-opacity:0"/>
		<stop  offset="1" style="stop-color:#FFFFFF"/>
	</linearGradient>
	<ellipse class="st6" cx="150" cy="113.4" rx="64" ry="53.5"/>
</g>
</svg>
