<?xml version="1.0" encoding="utf-8"?>
<!-- Generator: Adobe Illustrator 22.1.0, SVG Export Plug-In . SVG Version: 6.00 Build 0)  -->
<svg version="1.1" id="Layer_1" xmlns="http://www.w3.org/2000/svg" xmlns:xlink="http://www.w3.org/1999/xlink" x="0px" y="0px"
	 viewBox="0 0 343.7 186.7" style="enable-background:new 0 0 343.7 186.7;" xml:space="preserve">
<style type="text/css">
	.st0{fill:#808080;}
	.st1{fill:#B3B3B3;}
	.st2{fill:none;stroke:#808080;stroke-width:10;stroke-linecap:round;stroke-miterlimit:10;}
	.st3{fill:none;stroke:#666666;stroke-width:10;stroke-linecap:round;stroke-miterlimit:10;}
	.st4{fill:#4D4D4D;}
</style>
<g>
	<g>
		<path class="st0" d="M90.9,156.8c-35,0-63.5-28.5-63.5-63.5c0-35,28.5-63.5,63.5-63.5h161.9c35,0,63.5,28.5,63.5,63.5
			c0,35-28.5,63.5-63.5,63.5H90.9z"/>
		<path class="st1" d="M252.8,34.8c15.6,0,30.2,6.1,41.3,17.2c11.1,11.1,17.2,25.8,17.2,41.3c0,15.6-6.1,30.2-17.2,41.3
			c-11.1,11.1-25.8,17.2-41.3,17.2H90.9c-15.6,0-30.2-6.1-41.3-17.2c-11.1-11.1-17.2-25.8-17.2-41.3c0-15.6,6.1-30.2,17.2-41.3
			c11.1-11.1,25.8-17.2,41.3-17.2H252.8 M252.8,24.8H90.9c-37.7,0-68.5,30.8-68.5,68.5v0c0,37.7,30.8,68.5,68.5,68.5h161.9
			c37.7,0,68.5-30.8,68.5-68.5v0C321.3,55.7,290.5,24.8,252.8,24.8L252.8,24.8z"/>
	</g>
	<g>
		<g>
			<line class="st2" x1="178.8" y1="64.3" x2="178.8" y2="133.3"/>
		</g>
		<g>
			<line class="st2" x1="128.8" y1="63.8" x2="128.8" y2="132.8"/>
		</g>
		<g>
			<line class="st2" x1="228.8" y1="65.3" x2="228.8" y2="134.3"/>
		</g>
	</g>
	<g>
		<g>
			<line class="st3" x1="171.8" y1="59.3" x2="171.8" y2="128.3"/>
		</g>
		<g>
			<line class="st3" x1="121.8" y1="58.8" x2="121.8" y2="127.8"/>
		</g>
		<g>
			<line class="st3" x1="221.8" y1="60.3" x2="221.8" y2="129.3"/>
		</g>
	</g>
	<g>
		<path class="st4" d="M252.8,143.1H90.9c-15.6,0-30.2-6.1-41.3-17.2c-10.1-10.1-16-23.1-17-37.1c-0.1,1.4-0.2,2.8-0.2,4.2
			c0,15.6,6.1,30.2,17.2,41.3c11.1,11.1,25.8,17.2,41.3,17.2h161.9c15.6,0,30.2-6.1,41.3-17.2c11.1-11.1,17.2-25.8,17.2-41.3
			c0-1.4-0.1-2.8-0.2-4.2c-1,14-7,27-17,37.1C283,137,268.3,143.1,252.8,143.1z"/>
	</g>
</g>
</svg>
