<?xml version="1.0" encoding="UTF-8"?>
<svg width="98px" height="98px" viewBox="0 0 98 98" version="1.1" xmlns="http://www.w3.org/2000/svg" xmlns:xlink="http://www.w3.org/1999/xlink">
    <!-- Generator: Sketch 49.1 (51147) - http://www.bohemiancoding.com/sketch -->
    <title>remote communication</title>
    <desc>Created with Sketch.</desc>
    <defs></defs>
    <g id="Page-1" stroke="none" stroke-width="1" fill="none" fill-rule="evenodd">
        <g id="remote-communication" fill="#000000" fill-rule="nonzero">
            <path d="M15.4,39.2 C14.7,38.5 14.7,37.4 15.4,36.7 C16.1,36 17.2,36 17.9,36.7 L21.2,40 L21.2,18.4 C21.2,17.4 22,16.6 23,16.6 L42.3,16.6 C43.3,16.6 44.1,17.4 44.1,18.4 C44.1,19.4 43.3,20.2 42.3,20.2 L24.8,20.2 L24.8,40 L28.1,36.7 C28.8,36 29.9,36 30.6,36.7 C31.3,37.4 31.3,38.5 30.6,39.2 L24.3,45.5 C23.9,45.8 23.5,46 23,46 C22.5,46 22.1,45.8 21.8,45.5 L15.4,39.2 Z M46,57.8 L46,83.1 C46,86.1 43.6,88.5 40.6,88.5 L24.8,88.5 L24.8,94.1 L30.1,94.1 C31.1,94.1 31.9,94.9 31.9,95.9 C31.9,96.9 31.1,97.7 30.1,97.7 L15.9,97.7 C14.9,97.7 14.1,96.9 14.1,95.9 C14.1,94.9 14.9,94.1 15.9,94.1 L21.2,94.1 L21.2,88.5 L5.4,88.5 C2.4,88.5 0,86.1 0,83.1 L0,57.8 C0,54.8 2.4,52.4 5.4,52.4 L40.6,52.4 C43.6,52.4 46,54.8 46,57.8 Z M42.5,57.8 C42.5,56.8 41.6,55.9 40.6,55.9 L5.4,55.9 C4.4,55.9 3.5,56.8 3.5,57.8 L3.5,83.1 C3.5,84.1 4.4,85 5.4,85 L40.6,85 C41.6,85 42.5,84.1 42.5,83.1 L42.5,57.8 Z M76.2,53.6 C75.9,53.2 75.5,53 75,53 C74.5,53 74.1,53.2 73.8,53.5 L67.5,59.8 C66.8,60.5 66.8,61.6 67.5,62.3 C68.2,63 69.3,63 70,62.3 L73.3,59 L73.3,78.8 L55.7,78.8 C54.7,78.8 53.9,79.6 53.9,80.6 C53.9,81.6 54.7,82.4 55.7,82.4 L75,82.4 C76,82.4 76.8,81.6 76.8,80.6 L76.8,59 L80.1,62.3 C80.4,62.6 80.9,62.8 81.3,62.8 C81.7,62.8 82.2,62.6 82.5,62.3 C83.2,61.6 83.2,60.5 82.5,59.8 L76.2,53.6 Z M98,5.8 L98,31.1 C98,34.1 95.6,36.5 92.6,36.5 L76.7,36.5 L76.7,42.1 L82,42.1 C83,42.1 83.8,42.9 83.8,43.9 C83.8,44.9 83,45.7 82,45.7 L67.9,45.7 C66.9,45.7 66.1,44.9 66.1,43.9 C66.1,42.9 66.9,42.1 67.9,42.1 L73.2,42.1 L73.2,36.5 L57.4,36.5 C54.4,36.5 52,34.1 52,31.1 L52,5.8 C52,2.8 54.4,0.4 57.4,0.4 L92.6,0.4 C95.6,0.4 98,2.8 98,5.8 Z M94.5,5.8 C94.5,4.8 93.6,3.9 92.6,3.9 L57.4,3.9 C56.4,3.9 55.5,4.8 55.5,5.8 L55.5,31.1 C55.5,32.1 56.4,33 57.4,33 L92.6,33 C93.6,33 94.5,32.1 94.5,31.1 L94.5,5.8 Z" id="Shape"></path>
        </g>
    </g>
</svg>