<?xml version="1.0" encoding="utf-8"?>
<!-- Generator: Adobe Illustrator 22.1.0, SVG Export Plug-In . SVG Version: 6.00 Build 0)  -->
<svg version="1.1"
	 id="svg8" inkscape:version="0.92.2 5c3e80d, 2017-08-06" sodipodi:docname="success_check.svg" xmlns:cc="http://creativecommons.org/ns#" xmlns:dc="http://purl.org/dc/elements/1.1/" xmlns:inkscape="http://www.inkscape.org/namespaces/inkscape" xmlns:rdf="http://www.w3.org/1999/02/22-rdf-syntax-ns#" xmlns:sodipodi="http://sodipodi.sourceforge.net/DTD/sodipodi-0.dtd" xmlns:svg="http://www.w3.org/2000/svg"
	 xmlns="http://www.w3.org/2000/svg" xmlns:xlink="http://www.w3.org/1999/xlink" x="0px" y="0px" viewBox="0 0 100 100"
	 style="enable-background:new 0 0 100 100;" xml:space="preserve">
<style type="text/css">
	.st0{fill:#00B842;}
	.st1{fill:#FFFFFF;}
</style>
<sodipodi:namedview  bordercolor="#666666" borderopacity="1.0" id="base" inkscape:current-layer="layer1" inkscape:cx="314.11388" inkscape:cy="436.96475" inkscape:document-units="mm" inkscape:pageopacity="0.0" inkscape:pageshadow="2" inkscape:window-height="796" inkscape:window-maximized="1" inkscape:window-width="1440" inkscape:window-x="0" inkscape:window-y="1159" inkscape:zoom="0.65" pagecolor="#ffffff" showgrid="false">
	</sodipodi:namedview>
<circle class="st0" cx="50" cy="50" r="43.9"/>
<g>
	<path class="st1" d="M82.2,36.6c0,1.1-0.4,2.1-1.2,3L43.7,76.8c-0.8,0.8-1.8,1.2-3,1.2c-1.1,0-2.1-0.4-3-1.2L16.2,55.3
		c-0.8-0.8-1.2-1.8-1.2-3c0-1.1,0.4-2.1,1.2-3l5.9-5.9c0.8-0.8,1.8-1.2,3-1.2c1.1,0,2.1,0.4,3,1.2l12.7,12.8l28.4-28.5
		c0.8-0.8,1.8-1.2,3-1.2c1.1,0,2.1,0.4,3,1.2l5.9,5.9C81.8,34.4,82.2,35.4,82.2,36.6z"/>
</g>
</svg>
