<?xml version="1.0" encoding="UTF-8"?>
<svg width="60px" height="60px" viewBox="0 0 60 60" version="1.1" xmlns="http://www.w3.org/2000/svg" xmlns:xlink="http://www.w3.org/1999/xlink">
    <!-- Generator: Sketch 47.1 (45422) - http://www.bohemiancoding.com/sketch -->
    <title>whiteAlertIcon</title>
    <desc>Created with Sketch.</desc>
    <defs></defs>
    <g id="Page-1" stroke="none" stroke-width="1" fill="none" fill-rule="evenodd">
        <g id="whiteAlertIcon" fill-rule="nonzero" fill="#FFFFFF">
            <path d="M30,0.667 C13.833,0.667 0.667,13.834 0.667,30 C0.667,46.166 13.834,59.333 30,59.333 C46.166,59.333 59.333,46.166 59.333,30 C59.333,13.834 46.166,0.667 30,0.667 Z M30,54 C16.767,54 6,43.233 6,30 C6,16.767 16.767,6 30,6 C43.233,6 54,16.767 54,30 C54,43.233 43.233,54 30,54 Z" id="Shape"></path>
            <path d="M30,16.667 C28.533,16.667 27.333,17.867 27.333,19.334 L27.333,30.001 C27.333,31.468 28.533,32.668 30,32.668 C31.467,32.668 32.667,31.468 32.667,30.001 L32.667,19.334 C32.667,17.867 31.467,16.667 30,16.667 Z" id="Shape"></path>
            <path d="M30,38 C29.3,38 28.617,38.283 28.117,38.783 C27.617,39.283 27.334,39.966 27.334,40.666 C27.334,41.366 27.617,42.049 28.117,42.549 C28.617,43.049 29.3,43.332 30,43.332 C30.7,43.332 31.383,43.049 31.883,42.549 C32.383,42.049 32.666,41.366 32.666,40.666 C32.666,39.966 32.383,39.283 31.883,38.783 C31.383,38.283 30.7,38 30,38 Z" id="Shape"></path>
        </g>
    </g>
</svg>