<?xml version="1.0" encoding="utf-8"?>
<!-- Generator: Adobe Illustrator 22.1.0, SVG Export Plug-In . SVG Version: 6.00 Build 0)  -->
<svg version="1.1" id="Layer_1" xmlns="http://www.w3.org/2000/svg" xmlns:xlink="http://www.w3.org/1999/xlink" x="0px" y="0px"
	 viewBox="0 0 396 396" style="enable-background:new 0 0 396 396;" xml:space="preserve">
<title>temperatureIcon</title>
<desc>Created with Sketch.</desc>
<title>temperatureIcon</title>
<desc>Created with Sketch.</desc>
<g id="Page-1">
	<path d="M198,8C93.1,8,8,93.1,8,198s85.1,190,190,190s190-85.1,190-190S302.9,8,198,8z M198,328c-27.6,0-50-22-50-49.2
		c0-18,9.9-33.8,24.6-42.3V93c0-13.8,11.4-25,25.4-25s25.4,11.2,25.4,25v143.5c14.7,8.6,24.6,24.3,24.6,42.3
		C248,306,225.6,328,198,328z"/>
</g>
</svg>
