<?xml version="1.0" encoding="UTF-8"?>
<svg width="56px" height="80px" viewBox="0 0 56 80" version="1.1" xmlns="http://www.w3.org/2000/svg" xmlns:xlink="http://www.w3.org/1999/xlink">
    <!-- Generator: Sketch 48.2 (47327) - http://www.bohemiancoding.com/sketch -->
    <title>lock</title>
    <desc>Created with Sketch.</desc>
    <defs></defs>
    <g id="Page-1" stroke="none" stroke-width="1" fill="none" fill-rule="evenodd">
        <g id="lock" fill="#000000" fill-rule="nonzero">
            <rect id="Rectangle-path" x="24" y="48" width="8" height="12"></rect>
            <path d="M52,28 L48,28 L48,20 C48,9 39,0 28,0 C17,0 8,9 8,20 L8,28 L4,28 C1.8,28 0,29.8 0,32 L0,64 C0,72.8 7.2,80 16,80 L40,80 C48.8,80 56,72.8 56,64 L56,32 C56,29.8 54.2,28 52,28 Z M16,20 C16,13.4 21.4,8 28,8 C34.6,8 40,13.4 40,20 L40,28 L16,28 L16,20 Z M48,64 C48,68.4 44.4,72 40,72 L16,72 C11.6,72 8,68.4 8,64 L8,36 L48,36 L48,64 Z" id="Shape"></path>
        </g>
    </g>
</svg>