<?xml version="1.0" encoding="UTF-8"?>
<svg width="90px" height="90px" viewBox="0 0 90 90" version="1.1" xmlns="http://www.w3.org/2000/svg" xmlns:xlink="http://www.w3.org/1999/xlink">
    <!-- Generator: Sketch 46.2 (44496) - http://www.bohemiancoding.com/sketch -->
    <title>backIcon</title>
    <desc>Created with Sketch.</desc>
    <defs></defs>
    <g id="Page-1" stroke="none" stroke-width="1" fill="none" fill-rule="evenodd">
        <g id="backIcon" fill="#2EB457">
            <path d="M45,-2e-05 C20.1827,-2e-05 2.00000002e-07,20.18285 2.00000002e-07,45.00002 C2.00000002e-07,69.81722 20.1827,90.00002 45,90.00002 C69.8173,90.00002 90,69.81722 90,45.00002 C90,20.18285 69.8173,-2e-05 45,-2e-05 Z M45,5.99998 C66.5746,5.99998 84,23.42551 84,45.00002 C84,66.57462 66.5746,84.00002 45,84.00002 C23.4254,84.00002 6,66.57462 6,45.00002 C6,23.42551 23.4254,5.99998 45,5.99998 Z" id="Shape" fill-rule="nonzero"></path>
            <path d="M26.8037126,22 L22.7253477,26.0767394 L14,34.7811289 L26.8037126,47.6112283 L26.8037126,37.9274419 L63.9991853,37.9274419 C68.0969356,37.9274419 71.5732535,41.2027213 71.9500342,46.4604372 C72.3233364,51.6692617 69.2880691,56.2049274 65.1168129,56.6706502 L65.1070098,56.6706502 L65.0874035,56.6706502 C64.7682119,56.7333329 64.4477553,56.7333329 64.1266361,56.6706502 L64.116828,56.7318598 L36.8427646,56.7318598 L36.8427646,63 L64.4501596,63 L64.4501596,62.9020603 C64.8294852,62.9093125 65.2089162,62.9490902 65.5873935,62.9020603 C72.4489851,62.1197964 77.5643741,54.4830887 76.949954,45.9095266 C76.3382896,37.3742002 70.3941368,31.6593018 63.9991853,31.6593018 L26.8037126,31.6593018 L26.8037126,22 Z" id="Path"></path>
        </g>
    </g>
</svg>