<?xml version="1.0" encoding="UTF-8"?>
<svg width="308px" height="309px" viewBox="0 0 308 309" version="1.1" xmlns="http://www.w3.org/2000/svg" xmlns:xlink="http://www.w3.org/1999/xlink">
    <!-- Generator: Sketch 46.1 (44463) - http://www.bohemiancoding.com/sketch -->
    <title>ONBall</title>
    <desc>Created with Sketch.</desc>
    <defs></defs>
    <g id="Page-1" stroke="none" stroke-width="1" fill="none" fill-rule="evenodd">
        <g id="ONBall">
            <path d="M153.94,0.787 C238.471,0.787 307.634,69.951 307.634,154.481 C307.634,239.011 238.471,308.175 153.94,308.175 C69.41,308.175 0.246,239.011 0.246,154.481 C0.246,69.951 69.41,0.787 153.94,0.787" id="Fill-3" fill="#757561"></path>
            <path d="M106.48,79.609 C141.113,79.609 141.214,108.93 141.214,108.93 L141.214,199.26 C141.214,199.26 141.164,229.455 105.911,229.455 C70.496,229.455 70.628,199.26 70.628,199.26 L70.628,108.93 C70.628,108.93 70.587,79.609 106.48,79.609" id="Fill-4" fill="#FFFFFE"></path>
            <path d="M106.196,103.801 C115.062,103.801 115.072,113.461 115.072,113.461 L115.062,195.634 C115.062,195.634 115.072,205.181 106.053,205.181 C96.973,205.181 97.044,195.634 97.044,195.634 L97.055,113.461 C97.055,113.461 97.004,103.801 106.196,103.801" id="Fill-5" fill="#757561"></path>
            <path d="M187.771,227.566 C187.587,227.738 187.211,227.718 187.211,227.718 L165.356,227.718 C165.356,227.718 164.969,227.738 164.777,227.566 C164.594,227.383 164.604,227.008 164.604,227.008 L164.604,81.793 C164.604,81.793 164.594,81.427 164.777,81.245 C164.969,81.051 165.356,81.042 165.356,81.042 L192.199,81.042 C192.199,81.042 192.524,81.092 192.707,81.285 C192.899,81.468 192.95,81.793 192.95,81.793 L208.53,151.039 C208.53,151.039 210.053,154.502 212.43,154.359 C213.791,154.319 214.055,152.521 214.055,152.521 L214.055,81.793 C214.055,81.793 214.055,81.427 214.238,81.245 C214.43,81.051 214.806,81.042 214.806,81.042 L236.429,81.042 C236.429,81.042 236.805,81.051 236.988,81.245 C237.18,81.427 237.18,81.793 237.18,81.793 L237.18,227.008 C237.18,227.008 237.18,227.332 236.988,227.515 C236.805,227.687 236.429,227.718 236.429,227.718 L214.055,227.718 C214.055,227.718 213.181,227.738 212.583,227.424 C211.983,227.109 211.659,226.448 211.659,226.448 L193.681,149.495 C193.681,149.495 193.367,146.346 190.482,145.605 C188.227,145.229 187.963,147.189 187.963,147.189 L187.963,227.008 C187.963,227.008 187.963,227.383 187.771,227.566" id="Fill-6" fill="#FFFFFE"></path>
        </g>
    </g>
</svg>