<?xml version="1.0" encoding="UTF-8"?>
<svg width="42px" height="26px" viewBox="0 0 42 26" version="1.1" xmlns="http://www.w3.org/2000/svg" xmlns:xlink="http://www.w3.org/1999/xlink">
    <!-- Generator: Sketch 48.2 (47327) - http://www.bohemiancoding.com/sketch -->
    <title>serialIcon</title>
    <desc>Created with Sketch.</desc>
    <defs></defs>
    <g id="Page-1" stroke="none" stroke-width="1" fill="none" fill-rule="evenodd">
        <g id="noun_893633_cc" fill="#000000" fill-rule="nonzero">
            <g id="serialIcon">
                <path d="M28.054378,0.805 C26.8580833,0.806451073 25.7714459,1.50228539 25.269597,2.58825 L16.751674,2.58825 C13.883946,2.58825 12.679743,5.20489 11.471417,7.80568 L9.827278,11.34461 L8.548438,11.34461 C7.84699009,9.70740608 6.2381985,8.64500607 4.457089,8.6428 C3.27499399,8.64279454 2.14131295,9.1123872 1.30544561,9.9482718 C0.469578262,10.7841564 -4.62252137e-06,11.9178607 9.99999987e-07,13.09998 C-4.62252137e-06,14.2820993 0.469578262,15.4158036 1.30544561,16.2516882 C2.14131295,17.0875728 3.27499399,17.5571655 4.457089,17.55716 C6.23974211,17.5566558 7.85063139,16.4939794 8.552692,14.85536 L12.984987,14.85536 L14.57103,18.26929 C15.779356,20.87007 16.98356,23.48686 19.851288,23.48686 L28.405593,23.48686 C28.9232749,24.531743 29.9879183,25.1934228 31.153992,25.195 C31.9687062,25.1950031 32.7500528,24.8713544 33.3261436,24.2952535 C33.9022344,23.7191526 34.2258787,22.9377909 34.225878,22.12306 C34.225884,21.3083256 33.902242,20.5269588 33.3261507,19.9508536 C32.7500593,19.3747483 31.9687097,19.0510969 31.153992,19.0511 C29.95017,19.052759 28.8582638,19.7574458 28.360848,20.85372 L19.851288,20.85372 C18.396717,20.85372 17.896302,19.58059 17.266761,18.26929 L15.627757,14.85536 L34.48863,14.85536 L34.48863,17.43671 L41.999999,13.09998 L34.48863,8.76325 L34.48863,11.34461 L12.46814,11.34461 L14.167148,7.80568 C14.796688,6.49438 15.297103,5.22124 16.751674,5.22124 L25.294831,5.22124 C25.8088239,6.27725928 26.879934,6.94778719 28.054378,6.94875 C28.8690941,6.94875332 29.6504425,6.62510343 30.2265338,6.04900034 C30.8026251,5.47289724 31.1262683,4.69153281 31.126265,3.8768 C31.1261891,2.18026458 29.7508786,0.804993095 28.054378,0.805 Z" id="Shape"></path>
            </g>
        </g>
    </g>
</svg>