<?xml version="1.0" encoding="UTF-8"?>
<svg width="90px" height="90px" viewBox="0 0 90 90" version="1.1" xmlns="http://www.w3.org/2000/svg" xmlns:xlink="http://www.w3.org/1999/xlink">
    <!-- Generator: Sketch 48.2 (47327) - http://www.bohemiancoding.com/sketch -->
    <title>settingsIcon</title>
    <desc>Created with Sketch.</desc>
    <defs></defs>
    <g id="Page-1" stroke="none" stroke-width="1" fill="none" fill-rule="evenodd">
        <g id="settingsIcon" transform="translate(0.000000, -1.000000)" fill="#757561" fill-rule="nonzero">
            <g id="Group" transform="translate(0.000000, 0.637840)">
                <path d="M36.003426,0.36216 L36.003426,11.70916 C32.749489,12.29306 29.598197,13.35066 26.648686,14.85066 L19.26087,7.46186 L6.537705,20.18596 L13.958857,27.60746 C12.297673,30.33426 11.028647,33.28226 10.193888,36.36516 L2.5e-06,36.36516 L2.5e-06,54.3592 L10.201345,54.3592 C11.052773,57.5867 12.377509,60.6693 14.131248,63.5083 L6.537705,71.1021 L19.260869,83.8254 L26.470592,76.6163 C29.440719,78.3384 32.655177,79.6 36.003425,80.3541 L36.003425,90.3622 L53.996581,90.3622 L53.996581,79.8615 C56.886877,78.8813 59.629337,77.5141 62.151167,75.7995 L70.176337,83.8254 L82.899507,71.1021 L75.772257,63.9745 C77.575997,60.9917 78.909067,57.7487 79.721457,54.3592 L89.999997,54.3592 L89.999997,36.36516 L79.728917,36.36516 C78.822657,33.19706 77.458437,30.17886 75.680137,27.40626 L82.900388,20.18596 L70.176338,7.46186 L63.142088,14.49616 C60.307057,12.72816 57.225077,11.39036 53.996582,10.52596 L53.996582,0.36216 L36.003426,0.36216 Z M45.000223,28.81206 C45.286665,28.81206 45.572228,28.82206 45.854722,28.83406 C46.421463,28.86206 46.97987,28.91906 47.529065,29.00256 C55.495898,30.21076 61.550648,37.04436 61.550648,45.3631 C61.550648,52.2475 57.404048,58.1152 51.458529,60.6186 C50.96285,60.8273 50.455327,61.0121 49.936399,61.1727 C48.638421,61.5741 47.270698,61.8209 45.854722,61.892 C45.572228,61.906 45.286665,61.913 45.000223,61.913 C43.278944,61.913 41.62127,61.6537 40.063608,61.1721 C39.54468,61.0116 39.037158,60.8267 38.541478,60.618 C32.595959,58.1146 28.449361,52.2469 28.449361,45.3625 C28.449361,41.63316 29.66531,38.20236 31.726108,35.44306 C31.884462,35.23076 32.04808,35.02286 32.216084,34.81866 C34.740539,31.75666 38.349786,29.62696 42.470942,29.00196 C43.020137,28.91896 43.578544,28.86206 44.145285,28.83346 C44.428217,28.81946 44.713343,28.81146 45.000222,28.81146 L45.000223,28.81206 Z" id="Shape"></path>
            </g>
        </g>
    </g>
</svg>