<?xml version="1.0" encoding="UTF-8"?>
<svg width="396px" height="396px" viewBox="0 0 396 396" version="1.1" xmlns="http://www.w3.org/2000/svg" xmlns:xlink="http://www.w3.org/1999/xlink">
    <!-- Generator: Sketch 46.2 (44496) - http://www.bohemiancoding.com/sketch -->
    <title>Voltage icon</title>
    <desc>Created with Sketch.</desc>
    <defs></defs>
    <g id="Page-1" stroke="none" stroke-width="1" fill="none" fill-rule="evenodd">
        <g id="Voltage-icon" transform="translate(8.000000, 8.000000)">

            <path d="M245.416667,261.25 L231.325,261.25 L253.175,151.968333 C253.665833,149.498333 252.953333,146.933333 251.243333,145.065 C249.549167,143.228333 247.079167,142.278333 244.53,142.5475 L185.5825,149.1025 L213.3225,65.835 C214.13,63.4283333 213.718333,60.7683333 212.245833,58.71 C210.773333,56.6358333 208.3825,55.4166667 205.833333,55.4166667 L142.5,55.4166667 C138.905833,55.4166667 135.755,57.8391667 134.8525,61.3225 L95.2691667,211.739167 C94.5883333,214.335833 95.2691667,217.106667 97.0741667,219.085833 C98.895,221.065 101.6025,222.046667 104.230833,221.555833 L187.656667,207.654167 L175.734167,261.25 L158.333333,261.25 C155.594167,261.25 153.045,262.675 151.604167,265.0025 C150.163333,267.33 150.020833,270.243333 151.255833,272.6975 L182.9225,336.030833 C184.11,338.39 186.374167,340.005 189.0025,340.3375 C189.335,340.385 189.6675,340.400833 190,340.400833 C192.264167,340.400833 194.449167,339.419167 195.953333,337.693333 L251.37,274.36 C253.4125,272.0325 253.903333,268.7075 252.620833,265.873333 C251.338333,263.055 248.52,261.25 245.416667,261.25 Z" id="Shape" fill="#2EB457" fill-rule="nonzero"></path>
            <circle id="Oval" stroke="#2EB457" stroke-width="16" cx="190" cy="190" r="190"></circle>
        </g>
    </g>
</svg>