<?xml version="1.0" encoding="utf-8"?>
<!-- Generator: Adobe Illustrator 22.1.0, SVG Export Plug-In . SVG Version: 6.00 Build 0)  -->
<svg version="1.1" id="Layer_1" xmlns="http://www.w3.org/2000/svg" xmlns:xlink="http://www.w3.org/1999/xlink" x="0px" y="0px"
	 viewBox="0 0 320 160" style="enable-background:new 0 0 320 160;" xml:space="preserve">
<style type="text/css">
	.st0{fill:#808080;}
	.st1{fill:#B3B3B3;}
	.st2{fill:none;stroke:#808080;stroke-width:10;stroke-linecap:round;stroke-miterlimit:10;}
	.st3{fill:none;stroke:#666666;stroke-width:10;stroke-linecap:round;stroke-miterlimit:10;}
	.st4{fill:#4D4D4D;}
</style>
<g>
	<g>
		<path class="st0" d="M78.8,144.9C43.6,144.9,15,115.8,15,80s28.6-64.9,63.7-64.9h162.5c35.1,0,63.7,29.1,63.7,64.9
			s-28.6,64.9-63.7,64.9H78.8z"/>
		<path class="st1" d="M241.2,20.2c15.7,0,30.3,6.2,41.5,17.6C293.8,49.1,300,64.2,300,80c0,15.9-6.1,30.9-17.3,42.2
			c-11.1,11.3-25.9,17.6-41.5,17.6H78.8c-15.7,0-30.3-6.2-41.5-17.6S20,95.8,20,80c0-15.9,6.1-30.9,17.3-42.2s25.9-17.6,41.5-17.6
			L241.2,20.2 M241.2,10H78.8C40.9,10,10,41.5,10,80l0,0c0,38.5,30.9,70,68.8,70h162.5c37.8,0,68.8-31.5,68.8-70l0,0
			C310,41.6,279.1,10,241.2,10L241.2,10z"/>
	</g>
	<g>
		<g>
			<line class="st2" x1="167" y1="50.4" x2="167" y2="120.9"/>
		</g>
		<g>
			<line class="st2" x1="116.8" y1="49.9" x2="116.8" y2="120.4"/>
		</g>
		<g>
			<line class="st2" x1="217.2" y1="51.4" x2="217.2" y2="121.9"/>
		</g>
	</g>
	<g>
		<g>
			<line class="st3" x1="159.9" y1="45.3" x2="159.9" y2="115.8"/>
		</g>
		<g>
			<line class="st3" x1="109.8" y1="44.7" x2="109.8" y2="115.3"/>
		</g>
		<g>
			<line class="st3" x1="210.1" y1="46.3" x2="210.1" y2="116.8"/>
		</g>
	</g>
	<g>
		<path class="st4" d="M241.2,130.9H78.8c-15.7,0-30.3-6.2-41.5-17.6C27.2,103,21.2,89.7,20.2,75.4c-0.1,1.4-0.2,2.9-0.2,4.3
			c0,15.9,6.1,30.9,17.3,42.2s25.9,17.6,41.5,17.6h162.5c15.7,0,30.3-6.2,41.5-17.6c11.1-11.3,17.3-26.4,17.3-42.2
			c0-1.4-0.1-2.9-0.2-4.3c-1,14.3-7,27.6-17.1,37.9C271.6,124.7,256.8,130.9,241.2,130.9z"/>
	</g>
</g>
</svg>
